<!-- name: press play  (https://undraw.co/search) -->


<svg width="317" height="253" viewBox="0 0 317 253" fill="none" xmlns="http://www.w3.org/2000/svg">
<g clip-path="url(#clip0)">
<path opacity="0.1" d="M101.925 9.92324C111.692 1.21858 127.028 -0.54901 140.984 0.136446C184.825 2.31658 224.397 23.48 258.626 47.4202C271.018 56.0868 283.218 65.4261 291.262 77.3613C307.636 101.66 302.781 135.317 280.01 155.332C272.265 162.142 262.875 167.362 253.232 171.992C236.097 180.221 217.594 186.825 198.139 188.707C184.263 190.046 170.215 188.957 156.425 187.085C117.883 181.862 80.0623 170.295 48.3591 150.531C34.4543 141.858 21.3459 131.078 15.6152 117.045C9.88442 103.012 13.5526 85.2473 27.7652 76.9329C33.6388 73.4993 40.661 71.9475 47.5341 70.4909C57.6534 68.3457 67.9344 66.2322 77.0637 61.8751C86.4943 57.372 97.6639 48.6642 95.7854 38.7092C93.7672 28.0085 92.1807 18.6057 101.925 9.92324Z" fill="#5B8930"/>
<path opacity="0.1" d="M55.2386 51.0602C60.759 51.0602 65.2341 46.5847 65.2341 41.0639C65.2341 35.5432 60.759 31.0677 55.2386 31.0677C49.7182 31.0677 45.2431 35.5432 45.2431 41.0639C45.2431 46.5847 49.7182 51.0602 55.2386 51.0602Z" fill="#5B8930"/>
<path opacity="0.1" d="M34.2988 23.4515C37.7162 23.4515 40.4865 20.681 40.4865 17.2633C40.4865 13.8457 37.7162 11.0752 34.2988 11.0752C30.8815 11.0752 28.1111 13.8457 28.1111 17.2633C28.1111 20.681 30.8815 23.4515 34.2988 23.4515Z" fill="#5B8930"/>
<path opacity="0.1" d="M293.699 40.1119C295.802 40.1119 297.507 38.407 297.507 36.3038C297.507 34.2007 295.802 32.4957 293.699 32.4957C291.596 32.4957 289.892 34.2007 289.892 36.3038C289.892 38.407 291.596 40.1119 293.699 40.1119Z" fill="#5B8930"/>
<path opacity="0.1" d="M218.924 253C233.687 253 245.654 251.807 245.654 250.334C245.654 248.862 233.687 247.669 218.924 247.669C204.161 247.669 192.193 248.862 192.193 250.334C192.193 251.807 204.161 253 218.924 253Z" fill="#5B8930"/>
<path d="M67.9059 154.643L67.7885 160.974L66.8492 212.292L58.8084 231.123L31.0971 231.44V157.56L60.0174 155.269L67.9059 154.643Z" fill="#5F5D7E"/>
<path opacity="0.1" d="M67.9059 154.643L67.7885 160.974L66.8492 212.292L58.8084 231.123L31.0971 231.44V157.56L60.0174 155.269L67.9059 154.643Z" fill="black"/>
<path d="M67.9059 154.643L67.7885 160.974L66.8492 212.292L58.8084 231.123L60.9249 161.095L60.9186 161.05L60.0174 155.269L67.9059 154.643Z" fill="#5F5D7E"/>
<path opacity="0.1" d="M60.0174 155.269L67.9059 154.643L67.7885 160.974L60.9186 161.051L31.0971 161.384V157.56L60.0174 155.269Z" fill="black"/>
<path d="M317 157.56V231.015H310.549L284.738 212.187V155.488L307.798 153.32L309.213 153.971L310.549 154.586L317 157.56Z" fill="#5F5D7E"/>
<path opacity="0.1" d="M317 153.971H310.549V231.015H317V153.971Z" fill="black"/>
<path opacity="0.1" d="M317 153.971V158.194L310.549 158.267L284.738 158.553V155.487L307.798 153.32L309.213 153.971L310.549 154.586V153.971H317Z" fill="black"/>
<path d="M317 151.575V157.56L0 161.095V153.479L29.8278 147.449L289.393 145.545L317 151.575Z" fill="#5F5D7E"/>
<path opacity="0.1" d="M317 151.575V157.56L0 161.095V153.479L317 151.575Z" fill="black"/>
<path d="M219.774 61.8719H123.221C119.221 61.8719 115.979 65.1142 115.979 69.1137V140.849C115.979 144.848 119.221 148.09 123.221 148.09H219.774C223.773 148.09 227.015 144.848 227.015 140.849V69.1137C227.015 65.1142 223.773 61.8719 219.774 61.8719Z" fill="#474157"/>
<path d="M218.245 69.65H124.915V139.982H218.245V69.65Z" fill="#EDEDF4"/>
<path d="M121.272 106.344C122.117 106.344 122.802 105.659 122.802 104.815C122.802 103.97 122.117 103.285 121.272 103.285C120.428 103.285 119.743 103.97 119.743 104.815C119.743 105.659 120.428 106.344 121.272 106.344Z" fill="#E6E8EC"/>
<path d="M222.379 107.502C223.772 107.502 224.902 106.373 224.902 104.98C224.902 103.586 223.772 102.457 222.379 102.457C220.986 102.457 219.856 103.586 219.856 104.98C219.856 106.373 220.986 107.502 222.379 107.502Z" fill="#E6E8EC"/>
<path d="M181.642 105.087L169.708 97.833C169.46 97.6957 169.18 97.6254 168.897 97.629C168.614 97.6325 168.336 97.7099 168.092 97.8534C167.847 97.9969 167.645 98.2016 167.503 98.4473C167.362 98.693 167.287 98.9713 167.287 99.2547V113.364C167.287 113.647 167.362 113.925 167.503 114.171C167.645 114.417 167.847 114.622 168.092 114.765C168.336 114.908 168.614 114.986 168.897 114.989C169.18 114.993 169.46 114.923 169.708 114.785L181.642 107.937C181.895 107.795 182.105 107.588 182.252 107.338C182.398 107.087 182.476 106.802 182.476 106.512C182.476 106.222 182.398 105.937 182.252 105.687C182.105 105.436 181.895 105.23 181.642 105.087V105.087ZM190.616 106.309C190.616 102.983 189.629 99.7309 187.781 96.965C185.933 94.1991 183.307 92.0434 180.234 90.7704C177.161 89.4974 173.779 89.1643 170.517 89.8133C167.255 90.4623 164.258 92.0641 161.906 94.4163C159.554 96.7685 157.952 99.7654 157.303 103.028C156.654 106.291 156.987 109.672 158.26 112.746C159.533 115.819 161.689 118.446 164.454 120.294C167.22 122.142 170.472 123.128 173.798 123.128C178.258 123.128 182.536 121.356 185.69 118.202C188.844 115.048 190.616 110.77 190.616 106.309V106.309ZM160.236 106.309C160.236 103.627 161.031 101.004 162.521 98.7739C164.012 96.5435 166.13 94.805 168.608 93.7785C171.086 92.7519 173.813 92.4833 176.444 93.0067C179.074 93.53 181.491 94.8218 183.388 96.7186C185.284 98.6154 186.576 101.032 187.099 103.663C187.623 106.294 187.354 109.021 186.328 111.5C185.301 113.978 183.563 116.096 181.333 117.587C179.102 119.077 176.48 119.872 173.798 119.872C172.017 119.873 170.253 119.522 168.607 118.841C166.962 118.159 165.466 117.16 164.207 115.901C162.948 114.641 161.949 113.146 161.267 111.5C160.586 109.854 160.235 108.09 160.236 106.309V106.309Z" fill="#5B8930"/>
<path d="M255.085 161.571C255.022 161.183 254.901 160.806 254.726 160.454C254.968 159.632 255.123 159.127 255.123 159.127C255.123 159.127 255.123 159.007 255.085 158.81C254.896 157.647 254.292 156.592 253.384 155.841C252.477 155.089 251.328 154.692 250.151 154.723C248.247 154.758 244.636 154.885 240.631 155.335C240.86 153.733 241.133 151.816 241.418 149.842L241.942 149.899C242.062 149.899 242.189 149.899 242.316 149.918H242.484C242.902 149.944 243.314 149.818 243.646 149.563C243.727 149.484 243.787 149.386 243.821 149.278C243.856 149.17 243.862 149.055 243.841 148.944C243.82 148.833 243.772 148.728 243.701 148.64C243.63 148.552 243.538 148.483 243.433 148.439C243.901 148.486 244.373 148.415 244.807 148.233C245.241 148.052 245.623 147.765 245.918 147.398C246.187 147.022 246.332 146.57 246.332 146.107C246.332 145.644 246.187 145.192 245.918 144.815C245.248 143.863 243.83 143.229 243.754 142.108C243.712 141.474 244.138 140.903 244.471 140.341C245.274 138.939 245.595 137.312 245.384 135.71C245.174 134.107 244.444 132.619 243.306 131.471C242.86 131.028 242.389 130.61 241.897 130.218C241.199 127.654 240.469 125.362 240.254 125.289C239.974 125.197 239.495 124.594 239.038 124.077C239.08 123.641 239.073 123.201 239.016 122.767C238.68 120.545 236.478 118.958 235.265 116.997C234.053 115.036 233.834 112.634 234.145 110.387C234.456 108.14 235.24 105.966 235.878 103.774C236.354 102.146 236.75 100.416 236.217 98.8009C235.84 97.649 235.018 96.6525 234.171 95.7164C232.137 93.4664 229.792 91.3593 226.898 90.0042C224.886 89.0559 222.683 88.5846 220.459 88.627H220.437L220.088 88.646L219.841 88.6619L219.593 88.6873L219.33 88.7127C219.06 88.7476 218.793 88.7888 218.527 88.8428C216.594 88.413 214.621 88.1917 212.641 88.1827H212.384C211.796 88.148 211.212 88.2858 210.702 88.5794C209.997 89.0712 209.909 89.9534 209.696 90.7214C209.314 92.0066 208.509 93.125 207.411 93.8948C206.653 94.4406 205.761 94.8468 205.038 95.4181C204.314 95.9893 203.749 96.8461 203.943 97.6902C204.105 98.3979 204.765 98.9247 205.53 99.2452C205.438 99.3594 205.342 99.4705 205.254 99.5879C205.403 99.6482 205.571 99.7022 205.707 99.7466C206.659 100.029 207.684 100.064 208.649 100.321C208.914 100.392 209.175 100.48 209.429 100.584C208.571 102.198 208.124 103.999 208.125 105.827C208.129 107.857 208.68 109.848 209.719 111.592C210.759 113.335 212.249 114.766 214.034 115.734C214.034 115.842 214.034 115.947 214.034 116.052C214.132 119.365 213.881 123.395 212.187 124.077C210.492 124.759 208.871 125.531 207.871 126.029L207.554 126.197C207.291 126.076 207.027 125.949 206.77 125.816C206.77 125.816 205.422 125.657 205.657 126.686C205.657 126.686 201.579 126.051 199.342 127.793C197.105 129.535 193.433 133.172 192.713 134.121C191.993 135.07 186.424 137.145 186.424 137.145C186.424 137.145 188.179 134.692 187.42 131.687C187.42 131.687 186.583 128.063 186.982 126.609C187.382 125.156 188.42 119.761 188.42 119.761C188.42 119.761 188.566 114.068 185.459 111.456C182.353 108.845 180.192 106.696 181.391 109.235C181.916 110.399 182.502 111.533 183.149 112.634C183.149 112.634 175.721 114.398 178.358 117.153C180.995 119.907 181.712 119.91 181.712 119.91C181.712 119.91 180.833 126.711 180.671 127.977C180.509 129.243 179.084 138.891 179.084 138.891C179.084 138.891 179.005 143.479 179.805 144.19C179.805 144.19 180.328 147.145 183.638 147.046C183.638 147.046 189.946 146.888 191.704 146.177C193.462 145.466 199.529 141.667 200.17 141.905C200.217 141.924 200.259 141.952 200.294 141.988C200.328 142.017 200.36 142.049 200.389 142.083C199.754 143.489 198.25 148.262 198.891 150.607C198.891 150.607 198.333 157.249 201.687 159.384C201.687 159.384 206.558 167.61 204.72 172.037C204.574 172.395 204.444 172.725 204.324 173.046C201.535 170.733 197.279 168.603 190.781 167.426C190.117 167.305 189.457 167.159 188.804 167.001C186.957 166.553 181.877 166.144 179.459 174.176C178.895 176.043 178.177 177.86 177.314 179.609C176.362 181.535 175.305 184.296 175.283 187.034C175.229 190.874 177.212 194.679 184.409 196.075C184.488 198.931 184.815 202.333 185.792 204.78C187.788 209.762 190.984 217.829 190.984 217.829C190.984 217.829 194.817 226.055 195.058 229.374C195.214 231.548 195.442 234.397 195.283 236.355C195.283 236.476 195.264 236.59 195.252 236.705C194.923 237.06 194.564 237.386 194.179 237.679C193.621 237.996 191.783 239.973 191.783 240.446C191.787 240.899 191.828 241.351 191.904 241.798C191.035 242.556 190.559 243.385 190.559 244.21C190.559 248.5 202.734 251.978 217.753 251.978C232.771 251.978 244.944 248.487 244.944 244.21C244.944 240.294 234.789 237.057 221.595 236.524C224.347 235.426 226.79 234.274 227.802 233.35C228.019 233.181 228.185 232.955 228.281 232.697L225.727 226.765C225.727 226.765 225.527 226.81 225.232 226.896L225.054 226.629C223.918 224.899 221.732 221.453 221.732 220.517C221.732 220.171 221.154 217.959 220.317 214.929V205.202C228.649 206.472 239.387 204.745 239.387 204.745L239.435 204.72H239.644V204.606C241.088 203.806 248.31 199.576 250.452 193.965C251.087 192.328 250.297 189.982 248.726 187.475C249.824 184.75 252.534 177.708 252.264 174.899C252.264 174.75 252.245 174.582 252.245 174.417C252.271 174.13 252.281 173.842 252.277 173.554C252.594 169.428 255.133 161.891 255.133 161.891C255.133 161.891 255.117 161.761 255.085 161.571ZM201.141 143.241C201.719 144.257 202.337 145.555 202.582 146.082C202.582 146.082 201.738 144.527 201.157 143.241H201.141ZM201.744 232.129L201.684 232.151V231.833C201.649 231.006 201.669 230.177 201.744 229.352C201.753 228.907 201.659 228.466 201.471 228.063C200.493 225.606 199.839 223.032 199.526 220.406C199.209 217.639 198.945 214.621 199.11 213.853C199.358 212.676 199.561 203.758 199.253 199.363L204.165 200.467L209.877 212.114C209.877 212.114 213.551 217.801 214.691 222.288V226.781C214.357 228.12 213.775 229.384 212.974 230.507C212.215 231.545 211.476 232.595 210.791 233.68C210.581 234.017 210.35 234.363 210.118 234.686C210.042 234.686 206.288 234.905 205.65 235.61C205.257 236.045 204.571 236.73 204.457 237.419L204.295 237.444C203.559 235.251 201.76 232.129 201.76 232.129H201.744Z" fill="url(#paint0_linear)"/>
<path opacity="0.1" d="M225.908 228.051L224.638 232.176L219.244 236.857L211.311 239.135C211.311 239.135 207.583 237.095 208.852 236.698C209.204 236.587 209.623 236.184 210.048 235.657C209.604 237.276 213.136 235.191 213.136 235.191C213.136 235.191 222.259 228.685 223.21 227.971C223.835 227.557 224.52 227.244 225.241 227.042C225.638 227.66 225.908 228.051 225.908 228.051Z" fill="black"/>
<path d="M225.908 228.051L224.638 232.176L219.244 236.857L211.311 239.135C211.311 239.135 207.583 237.095 208.852 236.698C209.204 236.587 209.623 236.184 210.048 235.657C210.431 235.169 210.785 234.658 211.108 234.128C211.787 233.036 212.523 231.983 213.275 230.954C214.373 229.392 215.061 227.58 215.278 225.683C215.833 221.32 210.201 212.514 210.201 212.514L199.967 191.49L214.246 193.235C214.246 193.235 221.941 219.654 221.941 220.923C221.941 221.875 224.112 225.318 225.241 227.054C225.638 227.66 225.908 228.051 225.908 228.051Z" fill="#FDC2CC"/>
<path d="M217.987 252.476C232.905 252.476 244.998 248.988 244.998 244.686C244.998 240.383 232.905 236.895 217.987 236.895C203.07 236.895 190.977 240.383 190.977 244.686C190.977 248.988 203.07 252.476 217.987 252.476Z" fill="#5F5D7E"/>
<path d="M228.446 233.128C228.35 233.386 228.185 233.613 227.97 233.785C226.009 235.584 218.676 238.26 214.145 239.713C212.957 240.128 211.746 240.472 210.518 240.744C209.407 240.824 207.107 240.11 205.52 239.135C203.934 238.161 205.361 236.778 206.002 236.064C206.643 235.35 210.445 235.137 210.445 235.137C208.62 238.174 213.139 235.508 213.139 235.508C213.139 235.508 222.262 229.003 223.214 228.289C224.166 227.575 225.911 227.178 225.911 227.178L228.446 233.128Z" fill="#5B8930"/>
<path opacity="0.3" d="M228.446 233.128C228.35 233.386 228.185 233.613 227.97 233.785C226.009 235.584 218.676 238.26 214.145 239.713C212.957 240.128 211.746 240.472 210.518 240.744C209.407 240.824 207.107 240.11 205.52 239.135C203.934 238.161 205.361 236.778 206.002 236.064C206.643 235.35 210.445 235.137 210.445 235.137C208.62 238.174 213.139 235.508 213.139 235.508C213.139 235.508 222.262 229.003 223.214 228.289C224.166 227.575 225.911 227.178 225.911 227.178L228.446 233.128Z" fill="black"/>
<path opacity="0.1" d="M227.97 233.791C226.009 235.591 218.676 238.266 214.145 239.719C218.251 236.241 225.137 234.423 227.97 233.791Z" fill="black"/>
<path opacity="0.1" d="M217.987 243.734C220.972 243.734 223.391 243.036 223.391 242.176C223.391 241.315 220.972 240.617 217.987 240.617C215.003 240.617 212.584 241.315 212.584 242.176C212.584 243.036 215.003 243.734 217.987 243.734Z" fill="black"/>
<path d="M220.536 201.08H214.982V242.175H220.536V201.08Z" fill="#5F5D7E"/>
<path opacity="0.1" d="M220.536 203.117V207.877C219.425 207.535 216.89 206.091 214.982 204.955V201.077H216.141L220.536 203.117Z" fill="black"/>
<path d="M207.453 183.188C207.453 183.188 225.787 178.469 230.35 174.937C234.913 171.405 252.832 188.024 250.465 194.295C248.098 200.566 239.479 205.107 239.479 205.107C239.479 205.107 215.646 208.985 211.587 200.896C207.529 192.807 207.453 183.188 207.453 183.188Z" fill="#474157"/>
<path opacity="0.1" d="M207.453 183.188C207.453 183.188 225.787 178.469 230.35 174.937C234.913 171.405 252.832 188.024 250.465 194.295C248.098 200.566 239.479 205.107 239.479 205.107C239.479 205.107 215.646 208.985 211.587 200.896C207.529 192.807 207.453 183.188 207.453 183.188Z" fill="black"/>
<path d="M205.866 181.284C205.866 181.284 224.201 176.565 228.764 173.033C233.327 169.501 251.245 186.12 248.878 192.391C246.511 198.662 237.893 203.203 237.893 203.203C237.893 203.203 214.059 207.081 210.001 198.992C205.942 190.903 205.866 181.284 205.866 181.284Z" fill="#474157"/>
<path d="M188.861 138.012L186.878 137.291C186.878 137.291 188.623 134.832 187.871 131.817C187.871 131.817 187.036 128.18 187.433 126.708C187.83 125.235 188.861 119.837 188.861 119.837C188.861 119.837 189.007 114.125 185.919 111.507C182.832 108.889 180.69 106.747 181.88 109.286C182.4 110.454 182.982 111.593 183.625 112.697C183.625 112.697 176.248 114.465 178.865 117.232C181.483 119.999 182.197 119.996 182.197 119.996C182.197 119.996 181.325 126.819 181.166 128.088C181.007 129.358 179.579 139.037 179.579 139.037C179.579 139.037 179.5 143.638 180.293 144.352C180.47 145.211 180.954 145.976 181.656 146.502C182.357 147.028 183.227 147.279 184.101 147.208C184.666 147.199 191.4 139.757 188.861 138.012Z" fill="#FDC2CC"/>
<path d="M236.776 123.414V127.857L232.175 129.358L224.337 135.127L222.259 136.656L212.977 132.928L207.107 126.74C207.107 126.74 207.392 126.584 207.887 126.327L208.205 126.159C209.198 125.661 210.762 124.889 212.492 124.201C214.221 123.512 214.424 119.476 214.326 116.15V115.833C214.246 113.5 214.008 111.593 214.008 111.593C214.008 111.593 214.976 111.409 216.385 111.199C220.291 110.619 227.58 109.835 226.939 112.228C226.752 113.041 226.752 113.886 226.939 114.7C226.958 114.789 226.977 114.881 226.999 114.969C227.659 117.854 229.703 120.875 229.703 120.875L236.049 123.16L236.227 123.223L236.776 123.414Z" fill="#FDC2CC"/>
<path d="M236.776 124.763V123.414C237.275 123.328 237.784 123.328 238.283 123.414C238.838 123.573 239.892 125.239 240.368 125.397C240.844 125.556 243.757 136.425 243.439 137.377C243.122 138.329 240.124 159.822 240.124 159.822L234.079 166.487L232.889 148.16L236.776 137.291V124.763Z" fill="#FDC2CC"/>
<path d="M205.441 174.664C205.441 174.664 199.916 175.854 200.617 177.6C201.319 179.345 204.409 179.425 204.409 179.425L205.441 174.664Z" fill="#FDC2CC"/>
<path d="M213.136 139.424L208.931 148.484L203.934 152.133L203.061 146.494C203.061 146.494 201.373 142.765 200.646 142.134C200.611 142.098 200.569 142.07 200.522 142.051C199.888 141.813 193.859 145.621 192.113 146.335C190.368 147.049 184.101 147.208 184.101 147.208L186.878 137.291C186.878 137.291 192.431 135.228 193.145 134.276C193.859 133.324 197.508 129.675 199.729 127.93C201.95 126.184 206.002 126.819 206.002 126.819L206.066 126.844L207.107 127.295L210.121 134.673L213.136 139.424Z" fill="#FDC2CC"/>
<path d="M202.109 229.802C202.034 230.629 202.014 231.461 202.049 232.29C202.071 233.176 202.109 233.928 202.109 233.928L200.284 237.736C200.284 237.736 194.017 239.799 195.049 238.926C195.407 238.624 195.591 237.841 195.683 236.803C195.839 234.842 195.613 231.983 195.458 229.802C195.22 226.47 191.412 218.219 191.412 218.219C191.412 218.219 188.239 210.127 186.256 205.129C184.272 200.131 184.986 191.087 184.986 191.087C184.986 191.087 185.304 184.264 186.732 182.201C188.16 180.139 193.713 179.425 193.713 179.425L196.318 188.066C196.318 188.066 198.46 196.158 199.253 197.348C200.046 198.538 199.808 212.739 199.491 214.246C199.329 215.017 199.602 218.054 199.907 220.822C200.218 223.454 200.866 226.035 201.836 228.501C202.025 228.908 202.119 229.354 202.109 229.802V229.802Z" fill="#FDC2CC"/>
<path opacity="0.1" d="M202.109 233.928L200.284 237.736C200.284 237.736 194.017 239.799 195.049 238.926C195.407 238.624 195.591 237.841 195.683 236.803C195.909 236.578 196.15 236.33 196.397 236.076C197.992 234.423 199.924 233.132 202.061 232.29V232.29C202.071 233.176 202.109 233.928 202.109 233.928Z" fill="black"/>
<path d="M204.971 239.596C204.973 239.61 204.973 239.625 204.971 239.64C204.654 241.147 199.418 243.21 199.418 243.21C199.418 243.21 196.086 243.765 194.182 244.241C194.037 244.281 193.885 244.295 193.735 244.283C192.266 244.172 192.199 241.344 192.199 240.909C192.199 240.475 194.024 238.45 194.579 238.133C195.207 237.612 195.796 237.047 196.343 236.441C197.972 234.755 199.943 233.438 202.125 232.579V232.579C202.125 232.579 205.225 238.031 204.971 239.596Z" fill="#5B8930"/>
<path opacity="0.3" d="M204.971 239.596C204.973 239.61 204.973 239.625 204.971 239.64C204.654 241.147 199.418 243.21 199.418 243.21C199.418 243.21 196.086 243.765 194.182 244.241C194.037 244.281 193.885 244.295 193.735 244.283C192.266 244.172 192.199 241.344 192.199 240.909C192.199 240.475 194.024 238.45 194.579 238.133C195.217 237.605 195.815 237.031 196.369 236.416C197.963 234.755 199.896 233.456 202.036 232.608L202.125 232.573C202.125 232.573 205.225 238.031 204.971 239.596Z" fill="black"/>
<path opacity="0.1" d="M204.971 239.596C204.973 239.61 204.973 239.625 204.971 239.64C204.654 241.147 199.418 243.21 199.418 243.21C199.418 243.21 196.086 243.765 194.182 244.241C194.037 244.281 193.885 244.295 193.735 244.283C195.461 243.099 199.647 240.259 200.211 240.195C200.776 240.132 203.559 239.332 204.971 239.596Z" fill="black"/>
<path opacity="0.1" d="M227.012 114.969C225.051 116.585 223.249 116.353 220.51 116.353C218.53 116.353 215.957 117.048 214.335 116.156C214.269 113.678 214.018 111.593 214.018 111.593C214.018 111.593 227.821 108.975 226.949 112.228C226.749 113.133 226.771 114.074 227.012 114.969Z" fill="black"/>
<path d="M231.143 105.893C231.143 108.902 229.948 111.788 227.821 113.916C225.693 116.043 222.808 117.238 219.799 117.238C219.507 117.238 219.215 117.238 218.93 117.207C216.73 117.037 214.627 116.229 212.88 114.883C211.132 113.536 209.814 111.709 209.089 109.625C208.364 107.541 208.262 105.291 208.796 103.15C209.329 101.009 210.476 99.0703 212.095 97.5711C213.714 96.0719 215.735 95.0774 217.91 94.7093C220.086 94.3413 222.321 94.6157 224.343 95.4989C226.365 96.3822 228.086 97.8359 229.294 99.6821C230.502 101.528 231.146 103.687 231.147 105.893H231.143Z" fill="#FDC2CC"/>
<path opacity="0.1" d="M210.121 134.68L213.136 139.44L208.931 148.5L203.934 152.149L203.061 146.494C203.061 146.494 201.373 142.765 200.646 142.134C200.856 141.623 200.998 141.388 200.998 141.575C200.998 142.369 202.95 145.939 202.95 145.939C208.979 143.876 207.107 135.863 207.107 135.863C207.107 135.863 206.358 128.723 206.066 126.844L207.107 127.295L210.121 134.68Z" fill="black"/>
<path opacity="0.1" d="M236.776 123.414V127.857L232.175 129.358L224.337 135.127L222.259 136.657L212.977 132.928L207.107 126.74C207.107 126.74 207.392 126.584 207.887 126.327L208.205 126.159C212.288 128.015 216.709 128.698 219.866 128.942C221.318 129.065 222.776 129.098 224.232 129.04C236.186 127.136 236.541 124.248 236.243 123.223L236.776 123.414Z" fill="black"/>
<path d="M240.187 195.365C237.195 196.832 234.123 198.13 230.985 199.252C225.511 201.235 213.453 198.617 211.946 198.221C210.438 197.824 198.856 193.223 194.414 191.477C189.971 189.732 188.861 191.16 187.83 191.001C186.798 190.842 186.084 188.859 185.926 188.304C185.767 187.748 188.782 182.909 190.447 180.45C192.113 177.99 197.111 178.466 197.825 178.308C198.539 178.149 203.537 178.308 203.537 178.308C203.537 178.308 203.219 176.721 205.044 172.278C206.869 167.835 202.03 159.584 202.03 159.584C198.698 157.442 199.253 150.778 199.253 150.778C198.46 147.843 200.998 141.099 200.998 141.893C200.998 142.686 202.95 146.256 202.95 146.256C208.979 144.193 207.107 136.181 207.107 136.181C207.107 136.181 206.234 127.85 206.002 126.819C205.771 125.788 207.107 125.946 207.107 125.946C207.365 126.08 207.625 126.207 207.887 126.327C212.063 128.295 216.632 129.012 219.875 129.259C221.327 129.382 222.786 129.415 224.242 129.358C238.734 127.019 236.167 123.29 236.071 123.157L236.776 123.408C242.012 127.216 240.425 139.83 240.425 139.83L238.464 149.245L237.007 156.259C237.007 156.259 242.164 187.517 242.64 189.103C243.116 190.69 240.187 195.365 240.187 195.365Z" fill="#5B8930"/>
<path opacity="0.1" d="M201.554 181.084C201.236 181.322 197.666 188.7 200.284 190.763C202.902 192.826 201.554 181.084 201.554 181.084Z" fill="black"/>
<path opacity="0.1" d="M204.092 182.122C204.171 182.36 211.549 194.102 215.595 195.054L204.092 182.122Z" fill="black"/>
<path opacity="0.1" d="M221.865 89.2077L220.685 89.4584C221.01 89.3384 221.343 89.2398 221.681 89.1633L221.865 89.2077Z" fill="black"/>
<path opacity="0.1" d="M239.641 139.83L237.42 149.239C236.287 148.722 235.245 148.024 234.336 147.173C233.628 146.5 232.993 145.729 232.083 145.288C230.912 144.72 229.5 144.796 228.17 144.749C226.509 144.687 224.864 144.405 223.277 143.911C222.816 143.795 222.384 143.586 222.008 143.295C221.253 142.629 221.303 141.553 221.373 140.614C221.511 138.788 221.527 136.955 221.421 135.127C221.402 134.784 221.376 134.441 221.348 134.099C221.221 132.566 220.808 130.789 219.241 130.132C218.435 129.815 217.473 129.84 216.702 129.456C216.591 129.4 216.485 129.334 216.385 129.259C215.243 128.46 215.138 126.857 215.182 125.508C215.25 123.655 215.315 121.801 215.376 119.945C215.434 119.03 215.414 118.112 215.316 117.2C215.239 116.595 215.072 116.004 214.821 115.449C214.132 113.976 212.698 112.748 212.441 111.193C212.427 111.121 212.417 111.048 212.412 110.974C212.279 109.584 213.155 108.289 213.463 106.922C214.078 104.17 212.009 101.156 208.966 100.365C208.014 100.118 206.992 100.07 206.044 99.7878C205.892 99.7425 205.743 99.6896 205.596 99.6291C207.894 96.5636 211.832 94.5517 216.303 94.5517C223.388 94.5517 229.135 99.6291 229.135 105.897C229.135 109.451 227.285 112.621 224.394 114.703C224.413 114.792 224.435 114.884 224.461 114.973C225.206 117.857 227.52 120.878 227.52 120.878L234.704 123.163L235.503 123.417C241.437 127.222 239.641 139.83 239.641 139.83Z" fill="black"/>
<path opacity="0.1" d="M243.541 148.944C243.471 148.944 243.405 148.928 243.338 148.915C243.407 148.908 243.477 148.918 243.541 148.944V148.944Z" fill="black"/>
<path d="M219.006 88.8935C217.021 88.4322 214.99 88.1949 212.952 88.1859C212.288 88.1859 211.578 88.2208 211.048 88.5857C210.347 89.0776 210.258 89.9661 210.048 90.7341C209.669 92.0165 208.87 93.1342 207.779 93.9075C207.027 94.4565 206.142 94.8595 205.422 95.4371C204.701 96.0146 204.152 96.8715 204.333 97.7156C204.514 98.5597 205.463 99.2103 206.415 99.48C207.367 99.7498 208.379 99.7974 209.337 100.058C212.381 100.848 214.446 103.866 213.831 106.611C213.513 107.978 212.647 109.273 212.78 110.663C212.936 112.323 214.468 113.602 215.189 115.141C215.846 116.543 215.801 118.117 215.75 119.634L215.557 125.2C215.506 126.667 215.633 128.431 217.08 129.148C217.854 129.529 218.819 129.488 219.619 129.824C221.186 130.478 221.599 132.258 221.726 133.788C221.907 135.955 221.915 138.134 221.751 140.303C221.678 141.255 221.627 142.318 222.386 142.984C222.761 143.276 223.193 143.486 223.655 143.6C225.242 144.094 226.887 144.376 228.548 144.438C229.881 144.488 231.289 144.412 232.46 144.977C233.371 145.418 234.006 146.193 234.713 146.862C236.742 148.719 239.329 149.851 242.069 150.083C242.656 150.134 243.322 150.121 243.731 149.744C244.141 149.366 243.9 148.55 243.316 148.598C243.812 148.681 244.321 148.631 244.791 148.451C245.261 148.271 245.674 147.969 245.988 147.576C246.255 147.197 246.398 146.744 246.398 146.28C246.398 145.816 246.255 145.363 245.988 144.984C245.324 144.031 243.916 143.397 243.839 142.267C243.798 141.632 244.22 141.058 244.55 140.493C245.346 139.087 245.663 137.46 245.455 135.858C245.247 134.255 244.524 132.764 243.395 131.608C241.907 130.068 239.676 128.901 239.156 126.927C238.81 125.607 239.333 124.22 239.134 122.878C238.816 120.656 236.617 119.069 235.408 117.089C234.199 115.109 233.987 112.713 234.294 110.46C234.602 108.207 235.383 106.017 236.017 103.828C236.49 102.193 236.881 100.457 236.354 98.8358C235.976 97.6839 235.164 96.6842 234.32 95.7417C232.299 93.4854 229.973 91.372 227.098 90.0296C224.223 88.6872 220.72 88.1668 217.667 89.1601" fill="#474157"/>
<path opacity="0.1" d="M219.006 88.8935C217.021 88.4322 214.99 88.1949 212.952 88.1859C212.288 88.1859 211.578 88.2208 211.048 88.5857C210.347 89.0776 210.258 89.9661 210.048 90.7341C209.669 92.0165 208.87 93.1342 207.779 93.9075C207.027 94.4565 206.142 94.8595 205.422 95.4371C204.701 96.0146 204.152 96.8715 204.333 97.7156C204.514 98.5597 205.463 99.2103 206.415 99.48C207.367 99.7498 208.379 99.7974 209.337 100.058C212.381 100.848 214.446 103.866 213.831 106.611C213.513 107.978 212.647 109.273 212.78 110.663C212.936 112.323 214.468 113.602 215.189 115.141C215.846 116.543 215.801 118.117 215.75 119.634L215.557 125.2C215.506 126.667 215.633 128.431 217.08 129.148C217.854 129.529 218.819 129.488 219.619 129.824C221.186 130.478 221.599 132.258 221.726 133.788C221.907 135.955 221.915 138.134 221.751 140.303C221.678 141.255 221.627 142.318 222.386 142.984C222.761 143.276 223.193 143.486 223.655 143.6C225.242 144.094 226.887 144.376 228.548 144.438C229.881 144.488 231.289 144.412 232.46 144.977C233.371 145.418 234.006 146.193 234.713 146.862C236.742 148.719 239.329 149.851 242.069 150.083C242.656 150.134 243.322 150.121 243.731 149.744C244.141 149.366 243.9 148.55 243.316 148.598C243.812 148.681 244.321 148.631 244.791 148.451C245.261 148.271 245.674 147.969 245.988 147.576C246.255 147.197 246.398 146.744 246.398 146.28C246.398 145.816 246.255 145.363 245.988 144.984C245.324 144.031 243.916 143.397 243.839 142.267C243.798 141.632 244.22 141.058 244.55 140.493C245.346 139.087 245.663 137.46 245.455 135.858C245.247 134.255 244.524 132.764 243.395 131.608C241.907 130.068 239.676 128.901 239.156 126.927C238.81 125.607 239.333 124.22 239.134 122.878C238.816 120.656 236.617 119.069 235.408 117.089C234.199 115.109 233.987 112.713 234.294 110.46C234.602 108.207 235.383 106.017 236.017 103.828C236.49 102.193 236.881 100.457 236.354 98.8358C235.976 97.6839 235.164 96.6842 234.32 95.7417C232.299 93.4854 229.973 91.372 227.098 90.0296C224.223 88.6872 220.72 88.1668 217.667 89.1601" fill="black"/>
<path opacity="0.1" d="M202.03 159.591C202.03 159.591 204.727 160.622 207.583 157.766C210.438 154.91 202.03 159.591 202.03 159.591Z" fill="black"/>
<g opacity="0.1">
<path opacity="0.1" d="M220.199 88.8458C220.723 88.7418 221.253 88.675 221.786 88.6459C221.045 88.6007 220.301 88.624 219.565 88.7158L220.199 88.8458Z" fill="black"/>
<path opacity="0.1" d="M236.109 146.862C235.399 146.193 234.767 145.418 233.853 144.977C232.686 144.412 231.274 144.488 229.941 144.438C228.28 144.377 226.634 144.095 225.048 143.6C224.586 143.486 224.154 143.276 223.778 142.984C223.023 142.318 223.077 141.245 223.144 140.303C223.308 138.134 223.3 135.955 223.118 133.788C222.988 132.258 222.579 130.478 221.008 129.824C220.206 129.488 219.244 129.529 218.47 129.148C217.023 128.431 216.883 126.667 216.943 125.2C217.009 123.345 217.074 121.491 217.137 119.637C217.191 118.117 217.232 116.543 216.575 115.141C215.855 113.602 214.322 112.326 214.167 110.663C214.037 109.276 214.913 107.978 215.22 106.611C215.836 103.859 213.767 100.848 210.724 100.058C209.772 99.81 208.75 99.7593 207.802 99.48C206.853 99.2008 205.933 98.5978 205.736 97.7346C205.539 96.8715 206.101 96.0337 206.821 95.453C207.541 94.8722 208.427 94.4724 209.182 93.9234C210.273 93.1508 211.071 92.0327 211.448 90.75C211.66 89.982 211.765 89.0966 212.447 88.6016C212.838 88.359 213.288 88.2274 213.748 88.2208C213.466 88.2208 213.183 88.2049 212.904 88.2049C212.241 88.2049 211.53 88.2398 211 88.6016C210.299 89.0966 210.21 89.982 210.001 90.75C209.622 92.0324 208.823 93.1501 207.732 93.9234C206.98 94.4724 206.094 94.8754 205.374 95.453C204.654 96.0305 204.105 96.8873 204.286 97.7346C204.467 98.5819 205.406 99.1976 206.355 99.48C207.303 99.7624 208.319 99.7974 209.277 100.058C212.32 100.848 214.386 103.866 213.77 106.611C213.453 107.978 212.587 109.276 212.72 110.663C212.875 112.326 214.408 113.602 215.128 115.141C215.785 116.543 215.744 118.117 215.69 119.637C215.624 121.491 215.56 123.345 215.497 125.2C215.446 126.667 215.573 128.431 217.02 129.148C217.794 129.529 218.759 129.488 219.558 129.824C221.126 130.478 221.538 132.258 221.665 133.788C221.847 135.955 221.855 138.134 221.691 140.303C221.618 141.255 221.567 142.318 222.325 142.984C222.701 143.276 223.133 143.486 223.594 143.6C225.181 144.095 226.826 144.377 228.487 144.438C229.82 144.488 231.229 144.412 232.4 144.977C233.311 145.418 233.945 146.193 234.656 146.862C236.683 148.719 239.269 149.852 242.008 150.083C242.363 150.125 242.721 150.111 243.071 150.042C240.474 149.742 238.037 148.629 236.109 146.862V146.862Z" fill="black"/>
</g>
<path opacity="0.1" d="M186.878 137.291C186.878 137.291 184.339 139.62 184.71 140.572C185.082 141.525 186.878 137.291 186.878 137.291Z" fill="black"/>
<path d="M189.232 167.232C187.401 166.785 182.353 166.372 179.951 174.43C179.391 176.301 178.679 178.123 177.821 179.878C175.518 184.61 172.541 194.34 185.631 196.482L217.045 203.622C217.045 203.622 233.863 205.684 234.974 204.891C236.084 204.098 235.925 202.352 235.925 202.352C235.925 202.352 217.362 202.352 213.713 196.64C210.064 190.928 209.905 183.153 209.905 183.153C209.905 183.153 210.362 171.148 191.184 167.661C190.549 167.54 189.883 167.391 189.232 167.232Z" fill="#474157"/>
<path opacity="0.1" d="M189.232 167.286C187.401 166.839 182.353 166.426 179.951 174.487C179.391 176.358 178.679 178.181 177.821 179.935C175.518 184.664 172.541 194.394 185.631 196.536L217.045 203.676C217.045 203.676 233.863 205.738 234.974 204.945C236.084 204.152 235.925 202.406 235.925 202.406C235.925 202.406 217.362 202.406 213.713 196.694C210.064 190.982 209.905 183.207 209.905 183.207C209.905 183.207 210.362 171.202 191.184 167.715C190.549 167.594 189.883 167.439 189.232 167.286Z" fill="black"/>
<path d="M255.085 159.023C254.903 157.861 254.306 156.805 253.404 156.051C252.502 155.297 251.358 154.896 250.183 154.923C245.664 155.005 231.756 155.608 225.295 159.829C225.295 159.829 220.377 163.002 218.949 163.002C217.521 163.002 198.165 179.504 226.882 194.26C226.882 194.26 242.272 198.639 248.301 188.358C248.301 188.358 252.585 177.314 252.267 173.49C251.95 169.666 255.123 159.353 255.123 159.353C255.123 159.353 255.117 159.229 255.085 159.023Z" fill="#474157"/>
<path opacity="0.1" d="M255.085 161.803C254.723 159.581 252.61 157.976 250.183 158.017C245.664 158.093 231.756 158.651 225.295 162.545C225.295 162.545 220.377 165.474 218.949 165.474C217.521 165.474 198.165 180.707 226.882 194.33C226.882 194.33 242.272 198.373 248.301 188.881C248.301 188.881 252.585 178.685 252.267 175.156C251.95 171.628 255.123 162.107 255.123 162.107C255.123 162.107 255.117 161.993 255.085 161.803Z" fill="black"/>
<path d="M239.733 194.257H234.656V205.069H239.733V194.257Z" fill="#5F5D7E"/>
<path opacity="0.1" d="M54.0201 150.293C61.9133 150.293 68.312 149.882 68.312 149.375C68.312 148.869 61.9133 148.458 54.0201 148.458C46.1268 148.458 39.7281 148.869 39.7281 149.375C39.7281 149.882 46.1268 150.293 54.0201 150.293Z" fill="black"/>
<path d="M66.0147 114.005C65.7103 114.422 65.4667 114.88 65.2912 115.366C65.2468 115.487 65.2024 115.62 65.1579 115.75C65.0779 115.712 64.9938 115.683 64.9073 115.664C64.5373 115.572 64.1549 115.539 63.7744 115.566C63.7744 115.42 63.7935 115.249 63.7966 115.103C63.8442 113.43 63.6475 111.098 62.0514 112.085C60.5219 113.037 61.6135 114.624 62.6004 115.642L62.8542 115.89C61.953 116.524 61.7817 118.025 61.6326 119.584C61.4834 121.142 60.1602 122.849 59.2812 123.817C59.1924 123.915 59.1131 124.004 59.0337 124.087C58.6788 123.802 58.2675 123.597 57.8271 123.484C57.3868 123.37 56.9273 123.352 56.4793 123.43C56.4444 123.293 56.4032 123.15 56.3619 122.998C55.6511 120.434 54.1756 115.988 52.2939 115.014L52.5414 114.696C53.341 113.649 54.2422 112.097 52.9127 111.698C51.5831 111.298 51.4625 113.046 51.5355 114.354C51.5355 114.519 51.5609 114.671 51.5736 114.817C51.3079 114.83 51.0477 114.897 50.8088 115.014C50.5698 115.13 50.3571 115.295 50.1837 115.496L49.9775 115.255C48.8986 113.986 46.9217 111.964 46.322 113.491C45.7635 114.912 47.5056 116.756 48.7304 117.825L48.8066 117.892C47.9847 121.234 51.5641 123.963 53.506 125.143L53.7567 125.296C51.0913 128.437 49.4444 134.324 49.4444 134.324L56.9077 135.657C56.9077 135.657 61.8578 131.389 61.2232 127.377H61.274C66.221 126.387 67.3443 121.113 66.5732 117.981L66.662 117.946C67.5627 117.576 68.3521 116.979 68.9531 116.213C70.3366 114.287 67.4299 112.117 66.0147 114.005Z" fill="#5B8930"/>
<path opacity="0.1" d="M66.0147 114.005C65.7103 114.422 65.4667 114.88 65.2912 115.366C65.2468 115.487 65.2024 115.62 65.1579 115.75C65.0779 115.712 64.9938 115.683 64.9073 115.664C64.5373 115.572 64.1549 115.539 63.7744 115.566C63.7744 115.42 63.7935 115.249 63.7966 115.103C63.8442 113.43 63.6475 111.098 62.0514 112.085C60.5219 113.037 61.6135 114.624 62.6004 115.642L62.8542 115.89C61.953 116.524 61.7817 118.025 61.6326 119.584C61.4834 121.142 60.1602 122.849 59.2812 123.817C59.1924 123.915 59.1131 124.004 59.0337 124.087C58.6788 123.802 58.2675 123.597 57.8271 123.484C57.3868 123.37 56.9273 123.352 56.4793 123.43C56.4444 123.293 56.4032 123.15 56.3619 122.998C55.6511 120.434 54.1756 115.988 52.2939 115.014L52.5414 114.696C53.341 113.649 54.2422 112.097 52.9127 111.698C51.5831 111.298 51.4625 113.046 51.5355 114.354C51.5355 114.519 51.5609 114.671 51.5736 114.817C51.3079 114.83 51.0477 114.897 50.8088 115.014C50.5698 115.13 50.3571 115.295 50.1837 115.496L49.9775 115.255C48.8986 113.986 46.9217 111.964 46.322 113.491C45.7635 114.912 47.5056 116.756 48.7304 117.825L48.8066 117.892C47.9847 121.234 51.5641 123.963 53.506 125.143L53.7567 125.296C51.0913 128.437 49.4444 134.324 49.4444 134.324L56.9077 135.657C56.9077 135.657 61.8578 131.389 61.2232 127.377H61.274C66.221 126.387 67.3443 121.113 66.5732 117.981L66.662 117.946C67.5627 117.576 68.3521 116.979 68.9531 116.213C70.3366 114.287 67.4299 112.117 66.0147 114.005Z" fill="black"/>
<path d="M51.1579 116.156L50.2948 118.711C50.2948 118.711 49.8093 118.368 49.1969 117.829C47.9721 116.759 46.23 114.915 46.7885 113.494C47.3882 111.967 49.3651 113.983 50.444 115.258C50.8692 115.763 51.1579 116.156 51.1579 116.156Z" fill="#5B8930"/>
<path d="M52.9983 114.7C52.7328 115.048 52.4489 115.381 52.1479 115.699C52.0736 115.255 52.0217 114.807 51.9925 114.357C51.9195 113.05 52.0591 111.314 53.3696 111.701C54.6801 112.088 53.7853 113.652 52.9983 114.7Z" fill="#5B8930"/>
<path d="M64.2568 115.103C64.2314 115.944 64.1489 116.613 64.1489 116.613C63.7646 116.314 63.401 115.99 63.0605 115.642C62.0736 114.617 60.9821 113.037 62.5115 112.085C64.1045 111.098 64.3012 113.43 64.2568 115.103Z" fill="#5B8930"/>
<path d="M69.41 116.204C68.8069 116.97 68.0153 117.566 67.1127 117.933C66.8628 118.042 66.6063 118.134 66.3448 118.209L65.3167 116.766C65.4255 116.289 65.5676 115.82 65.7419 115.363C65.9173 114.877 66.1609 114.419 66.4653 114.002C67.8933 112.117 70.7935 114.287 69.41 116.204Z" fill="#5B8930"/>
<path opacity="0.1" d="M50.4344 115.258C50.8692 115.763 51.1579 116.156 51.1579 116.156L50.2948 118.711C50.2948 118.711 49.8093 118.368 49.1969 117.829C49.3336 117.011 49.6717 116.24 50.1806 115.585C50.2567 115.468 50.3488 115.357 50.4344 115.258Z" fill="black"/>
<path opacity="0.1" d="M52.9984 114.7C52.7328 115.048 52.449 115.381 52.148 115.699C52.0736 115.255 52.0217 114.807 51.9925 114.357C52.3554 114.363 52.7073 114.483 52.9984 114.7V114.7Z" fill="black"/>
<path d="M57.2757 124.842L55.1053 125.794C55.1053 125.794 54.6325 125.565 53.9502 125.14C51.6687 123.734 47.0835 120.202 50.1583 116.039C53.2331 111.875 55.797 119.346 56.8061 122.995C57.1266 124.09 57.2757 124.842 57.2757 124.842Z" fill="#5B8930"/>
<path opacity="0.1" d="M63.0573 115.642C63.3721 115.316 63.8004 115.122 64.2536 115.103C64.2282 115.944 64.1457 116.613 64.1457 116.613C63.7614 116.315 63.3978 115.99 63.0573 115.642Z" fill="black"/>
<path opacity="0.1" d="M67.1127 117.933C66.8628 118.042 66.6063 118.134 66.3448 118.209L65.3167 116.766C65.4255 116.289 65.5676 115.82 65.7419 115.363C66.4114 115.756 66.9001 116.718 67.1127 117.933Z" fill="black"/>
<path d="M61.7182 127.368L61.3533 127.431C54.0772 128.539 58.9544 124.613 58.9544 124.613C58.9544 124.613 59.2717 124.312 59.7255 123.817C60.6044 122.849 61.9245 121.151 62.0768 119.584C62.3053 117.226 62.5686 115.014 65.3515 115.664C68.0963 116.302 68.6199 125.988 61.7182 127.368Z" fill="#5B8930"/>
<path d="M61.5945 145.482H47.6928V149.138H61.5945V145.482Z" fill="#474157"/>
<path d="M63.6475 133.601H45.4843V146.358H63.6475V133.601Z" fill="#474157"/>
<path opacity="0.1" d="M61.4612 145.482H47.5595V149.138H61.4612V145.482Z" fill="black"/>
<path opacity="0.1" d="M63.5904 133.604H45.4271V146.361H63.5904V133.604Z" fill="black"/>
<path d="M62.5084 145.482H48.6067V149.138H62.5084V145.482Z" fill="#474157"/>
<path opacity="0.1" d="M56.8189 123.011C57.1362 124.103 57.2885 124.855 57.2885 124.855L55.1181 125.807C55.1181 125.807 54.6452 125.578 53.963 125.153C54.8134 124.064 55.7717 123.249 56.8189 123.011Z" fill="black"/>
<path opacity="0.1" d="M61.7182 127.368L61.3533 127.431C54.0772 128.539 58.9544 124.613 58.9544 124.613C58.9544 124.613 59.2717 124.312 59.7255 123.817C61.0836 124.915 61.6579 126.13 61.7182 127.368Z" fill="black"/>
<path d="M49.9013 134.324C49.9013 134.324 53.9756 119.726 59.6905 124.233C65.4054 128.739 57.3646 135.657 57.3646 135.657L49.9013 134.324Z" fill="#5B8930"/>
<path opacity="0.1" d="M51.9575 118.784C52.2099 118.784 52.4145 118.579 52.4145 118.327C52.4145 118.075 52.2099 117.87 51.9575 117.87C51.7052 117.87 51.5006 118.075 51.5006 118.327C51.5006 118.579 51.7052 118.784 51.9575 118.784Z" fill="black"/>
<path opacity="0.1" d="M51.9195 120.92C52.1718 120.92 52.3764 120.715 52.3764 120.463C52.3764 120.21 52.1718 120.006 51.9195 120.006C51.6671 120.006 51.4625 120.21 51.4625 120.463C51.4625 120.715 51.6671 120.92 51.9195 120.92Z" fill="black"/>
<path opacity="0.1" d="M65.1738 119.203C65.4262 119.203 65.6307 118.998 65.6307 118.746C65.6307 118.493 65.4262 118.289 65.1738 118.289C64.9214 118.289 64.7169 118.493 64.7169 118.746C64.7169 118.998 64.9214 119.203 65.1738 119.203Z" fill="black"/>
<path opacity="0.1" d="M54.5088 130.135C54.7612 130.135 54.9658 129.931 54.9658 129.678C54.9658 129.426 54.7612 129.221 54.5088 129.221C54.2565 129.221 54.0519 129.426 54.0519 129.678C54.0519 129.931 54.2565 130.135 54.5088 130.135Z" fill="black"/>
<path opacity="0.1" d="M64.2218 122.747C64.4742 122.747 64.6788 122.543 64.6788 122.29C64.6788 122.038 64.4742 121.833 64.2218 121.833C63.9695 121.833 63.7649 122.038 63.7649 122.29C63.7649 122.543 63.9695 122.747 64.2218 122.747Z" fill="black"/>
<path opacity="0.1" d="M59.5001 127.469C59.7525 127.469 59.9571 127.265 59.9571 127.013C59.9571 126.76 59.7525 126.556 59.5001 126.556C59.2478 126.556 59.0432 126.76 59.0432 127.013C59.0432 127.265 59.2478 127.469 59.5001 127.469Z" fill="black"/>
<path opacity="0.1" d="M53.5188 119.698C53.7711 119.698 53.9757 119.493 53.9757 119.241C53.9757 118.988 53.7711 118.784 53.5188 118.784C53.2664 118.784 53.0618 118.988 53.0618 119.241C53.0618 119.493 53.2664 119.698 53.5188 119.698Z" fill="black"/>
<path opacity="0.1" d="M63.9173 120.577C64.1696 120.577 64.3742 120.372 64.3742 120.12C64.3742 119.867 64.1696 119.663 63.9173 119.663C63.6649 119.663 63.4603 119.867 63.4603 120.12C63.4603 120.372 63.6649 120.577 63.9173 120.577Z" fill="black"/>
<path opacity="0.1" d="M62.356 124.118C62.6084 124.118 62.813 123.914 62.813 123.661C62.813 123.409 62.6084 123.204 62.356 123.204C62.1037 123.204 61.8991 123.409 61.8991 123.661C61.8991 123.914 62.1037 124.118 62.356 124.118Z" fill="black"/>
<path opacity="0.1" d="M57.555 129.792C57.8074 129.792 58.012 129.588 58.012 129.335C58.012 129.083 57.8074 128.878 57.555 128.878C57.3027 128.878 57.0981 129.083 57.0981 129.335C57.0981 129.588 57.3027 129.792 57.555 129.792Z" fill="black"/>
<path opacity="0.1" d="M56.565 127.546C56.8173 127.546 57.0219 127.341 57.0219 127.089C57.0219 126.836 56.8173 126.632 56.565 126.632C56.3126 126.632 56.108 126.836 56.108 127.089C56.108 127.341 56.3126 127.546 56.565 127.546Z" fill="black"/>
<path opacity="0.1" d="M54.2041 122.481C54.4565 122.481 54.6611 122.276 54.6611 122.024C54.6611 121.772 54.4565 121.567 54.2041 121.567C53.9518 121.567 53.7472 121.772 53.7472 122.024C53.7472 122.276 53.9518 122.481 54.2041 122.481Z" fill="black"/>
<path opacity="0.1" d="M62.5084 145.482H48.6067V146.818H62.5084V145.482Z" fill="black"/>
<path d="M64.5614 133.601H46.3982V146.358H64.5614V133.601Z" fill="#474157"/>
<path opacity="0.1" d="M58.1643 131.849C58.4166 131.849 58.6212 131.644 58.6212 131.392C58.6212 131.139 58.4166 130.935 58.1643 130.935C57.9119 130.935 57.7073 131.139 57.7073 131.392C57.7073 131.644 57.9119 131.849 58.1643 131.849Z" fill="black"/>
<path opacity="0.1" d="M55.4226 132.42C55.675 132.42 55.8796 132.215 55.8796 131.963C55.8796 131.711 55.675 131.506 55.4226 131.506C55.1703 131.506 54.9657 131.711 54.9657 131.963C54.9657 132.215 55.1703 132.42 55.4226 132.42Z" fill="black"/>
<path d="M98.9681 182.354C98.9681 182.354 101.231 185.314 97.9241 189.783C94.6177 194.251 91.8951 198.033 92.9867 200.813C92.9867 200.813 97.9813 192.512 102.046 192.397C106.111 192.283 103.439 187.349 98.9681 182.354Z" fill="#5B8930"/>
<path opacity="0.1" d="M98.9681 182.354C99.1658 182.639 99.3218 182.951 99.4314 183.28C103.395 187.939 105.508 192.286 101.697 192.397C98.1462 192.508 93.8878 198.855 92.8661 200.442C92.901 200.566 92.9422 200.69 92.9867 200.807C92.9867 200.807 97.9812 192.505 102.046 192.391C106.111 192.277 103.439 187.349 98.9681 182.354Z" fill="black"/>
<path d="M103.176 186.13C103.176 187.171 103.058 188.015 102.916 188.015C102.773 188.015 102.655 187.171 102.655 186.13C102.655 185.089 102.801 185.578 102.944 185.578C103.087 185.578 103.176 185.086 103.176 186.13Z" fill="#FFD037"/>
<path d="M104.62 187.374C103.706 187.872 102.909 188.174 102.839 188.047C102.77 187.92 103.455 187.412 104.372 186.914C105.289 186.416 104.924 186.777 105.007 186.914C105.089 187.05 105.537 186.876 104.62 187.374Z" fill="#FFD037"/>
<path d="M87.0084 182.354C87.0084 182.354 84.746 185.314 88.0524 189.783C91.3588 194.251 94.0814 198.033 92.9867 200.813C92.9867 200.813 87.9953 192.512 83.9305 192.397C79.8656 192.283 82.5374 187.349 87.0084 182.354Z" fill="#5B8930"/>
<path opacity="0.1" d="M87.0084 182.354C86.8107 182.639 86.6547 182.951 86.5451 183.28C82.5819 187.939 80.4685 192.286 84.2795 192.397C87.8303 192.508 92.0887 198.855 93.1104 200.442C93.0759 200.566 93.0346 200.688 92.9867 200.807C92.9867 200.807 87.9953 192.508 83.9305 192.401C79.8656 192.293 82.5374 187.349 87.0084 182.354Z" fill="black"/>
<path d="M82.8008 186.13C82.8008 187.171 82.9182 188.015 83.061 188.015C83.2038 188.015 83.3212 187.171 83.3212 186.13C83.3212 185.089 83.1752 185.578 83.0324 185.578C82.8896 185.578 82.8008 185.086 82.8008 186.13Z" fill="#FFD037"/>
<path d="M81.357 187.374C82.2709 187.872 83.0673 188.174 83.1372 188.047C83.207 187.92 82.5216 187.412 81.6045 186.914C80.6875 186.416 81.0524 186.777 80.9699 186.914C80.8874 187.05 80.4399 186.876 81.357 187.374Z" fill="#FFD037"/>
<path opacity="0.1" d="M92.9867 223.468C106.06 223.468 116.659 221.841 116.659 219.835C116.659 217.828 106.06 216.201 92.9867 216.201C79.9131 216.201 69.3148 217.828 69.3148 219.835C69.3148 221.841 79.9131 223.468 92.9867 223.468Z" fill="#5B8930"/>
<path d="M105.172 196.828L105.057 197.751L104.899 199.058L104.835 199.601L104.673 200.909L104.607 201.454L104.448 202.759L102.652 217.61C102.49 218.937 100.323 219.968 97.7115 219.968H88.2809C85.6662 219.968 83.5211 218.937 83.3434 217.61L81.5284 202.759L81.3697 201.454L81.3031 200.909L81.1412 199.601L81.0778 199.058L80.9191 197.751L80.8049 196.828C80.7129 196.079 81.8838 195.444 83.3656 195.444H102.614C104.09 195.444 105.264 196.079 105.172 196.828Z" fill="#65617D"/>
<path d="M105.057 197.751L104.899 199.055H81.0777L80.9191 197.751H105.057Z" fill="#9D9CB5"/>
<path d="M104.835 199.601L104.677 200.909H81.3031L81.1412 199.601H104.835Z" fill="#9D9CB5"/>
<path d="M104.607 201.451L104.448 202.759H81.5283L81.3697 201.451H104.607Z" fill="#9D9CB5"/>
</g>
<defs>
<linearGradient id="paint0_linear" x1="215.195" y1="251.962" x2="215.195" y2="88.1859" gradientUnits="userSpaceOnUse">
<stop stop-color="#808080" stop-opacity="0.25"/>
<stop offset="0.54" stop-color="#808080" stop-opacity="0.12"/>
<stop offset="1" stop-color="#808080" stop-opacity="0.1"/>
</linearGradient>
<clipPath id="clip0">
<rect width="317" height="253" fill="white"/>
</clipPath>
</defs>
</svg>
